<svg width="54" height="54" viewBox="0 0 54 54" fill="none" xmlns="http://www.w3.org/2000/svg">
<g opacity="0.2">
<path fill-rule="evenodd" clip-rule="evenodd" d="M23.4034 11.6888C23.8102 11.3496 24.2798 11.0939 24.7855 10.9363C25.2911 10.7787 25.8229 10.7222 26.3504 10.7701C26.8778 10.8181 27.3907 10.9694 27.8597 11.2156C28.3286 11.4618 28.7445 11.798 29.0835 12.2049L38.0433 22.9577C38.3973 23.3624 38.6668 23.8338 38.836 24.3441C39.0051 24.8545 39.0705 25.3936 39.0283 25.9296C38.986 26.4656 38.837 26.9877 38.59 27.4653C38.343 27.9429 38.0029 28.3662 37.5899 28.7104C37.1768 29.0546 36.6991 29.3128 36.1848 29.4696C35.6705 29.6265 35.1301 29.6789 34.5952 29.6238C34.0604 29.5687 33.5419 29.4072 33.0704 29.1488C32.5989 28.8903 32.1839 28.5402 31.8497 28.119L22.8872 17.3663C22.2031 16.5448 21.8731 15.4853 21.9699 14.4207C22.0667 13.356 22.5823 12.3734 23.4034 11.6888Z" fill="#83ECD3"/>
<path fill-rule="evenodd" clip-rule="evenodd" d="M23.4034 39.3881C22.5823 38.7035 22.0667 37.7208 21.9699 36.6562C21.8731 35.5915 22.2031 34.532 22.8872 33.7106L31.8497 22.9578C32.5428 22.1655 33.5183 21.6757 34.5677 21.593C35.6171 21.5103 36.6573 21.8412 37.4659 22.5151C38.2746 23.189 38.7877 24.1524 38.8956 25.1996C39.0035 26.2467 38.6976 27.2945 38.0433 28.1191L29.0835 38.8719C28.7445 39.2789 28.3286 39.615 27.8597 39.8612C27.3907 40.1074 26.8778 40.2588 26.3504 40.3067C25.8229 40.3546 25.2911 40.2982 24.7855 40.1405C24.2798 39.9829 23.8102 39.7272 23.4034 39.3881Z" fill="#83ECD3"/>
<path fill-rule="evenodd" clip-rule="evenodd" d="M33.6024 25.5385C33.6024 26.6079 33.1776 27.6336 32.4214 28.3898C31.6652 29.146 30.6395 29.5708 29.5701 29.5708L8.06449 29.5708C6.99506 29.5708 5.96943 29.146 5.21322 28.3898C4.45702 27.6336 4.03219 26.6079 4.03219 25.5385C4.03219 24.4691 4.45702 23.4434 5.21322 22.6872C5.96943 21.931 6.99506 21.5062 8.06449 21.5062L29.5701 21.5062C30.6395 21.5062 31.6652 21.931 32.4214 22.6872C33.1776 23.4434 33.6024 24.4691 33.6024 25.5385Z" fill="#83ECD3"/>
</g>
<path fill-rule="evenodd" clip-rule="evenodd" d="M30.5029 15.0975C30.7767 14.8695 31.1299 14.7595 31.4848 14.7918C31.8396 14.824 32.1672 14.9959 32.3954 15.2696L41.3551 26.0224C41.5732 26.2972 41.6752 26.6465 41.6393 26.9955C41.6033 27.3446 41.4323 27.6657 41.1627 27.8904C40.8931 28.115 40.5464 28.2253 40.1966 28.1977C39.8468 28.1702 39.5217 28.0069 39.2906 27.7428L30.3308 16.99C30.1028 16.7162 29.9928 16.363 30.0251 16.0081C30.0573 15.6533 30.2292 15.3257 30.5029 15.0975Z" fill="#83ECD3"/>
<path fill-rule="evenodd" clip-rule="evenodd" d="M30.5029 38.6677C30.2292 38.4395 30.0573 38.112 30.0251 37.7571C29.9928 37.4022 30.1028 37.049 30.3308 36.7752L39.2906 26.0224C39.5217 25.7583 39.8468 25.5951 40.1966 25.5675C40.5464 25.5399 40.8931 25.6502 41.1627 25.8749C41.4323 26.0995 41.6033 26.4206 41.6393 26.7697C41.6752 27.1187 41.5732 27.468 41.3551 27.7429L32.3954 38.4957C32.1672 38.7694 31.8396 38.9412 31.4848 38.9735C31.1299 39.0057 30.7767 38.8958 30.5029 38.6677Z" fill="#83ECD3"/>
<path fill-rule="evenodd" clip-rule="evenodd" d="M40.3229 26.8825C40.3229 27.2389 40.1813 27.5808 39.9292 27.8329C39.6771 28.085 39.3353 28.2266 38.9788 28.2266L13.4409 28.2266C13.0844 28.2266 12.7425 28.085 12.4905 27.8329C12.2384 27.5808 12.0968 27.2389 12.0968 26.8825C12.0968 26.526 12.2384 26.1841 12.4905 25.932C12.7425 25.68 13.0844 25.5384 13.4409 25.5384L38.9788 25.5384C39.3353 25.5384 39.6771 25.68 39.9292 25.932C40.1813 26.1841 40.3229 26.526 40.3229 26.8825Z" fill="#83ECD3"/>
</svg>
