<svg width="55" height="54" viewBox="0 0 55 54" fill="none" xmlns="http://www.w3.org/2000/svg">
<g opacity="0.2">
<path fill-rule="evenodd" clip-rule="evenodd" d="M24.1673 11.6888C24.5741 11.3496 25.0437 11.0939 25.5494 10.9363C26.055 10.7787 26.5868 10.7222 27.1143 10.7701C27.6418 10.8181 28.1546 10.9694 28.6236 11.2156C29.0926 11.4618 29.5084 11.798 29.8474 12.2049L38.8072 22.9577C39.1612 23.3624 39.4308 23.8338 39.5999 24.3441C39.7691 24.8545 39.8344 25.3936 39.7922 25.9296C39.7499 26.4656 39.6009 26.9877 39.3539 27.4653C39.1069 27.9429 38.7668 28.3662 38.3538 28.7104C37.9407 29.0546 37.463 29.3128 36.9487 29.4696C36.4344 29.6265 35.894 29.6789 35.3591 29.6238C34.8243 29.5687 34.3059 29.4072 33.8344 29.1488C33.3629 28.8903 32.9478 28.5402 32.6136 28.119L23.6511 17.3662C22.967 16.5448 22.6371 15.4853 22.7338 14.4207C22.8306 13.356 23.3462 12.3734 24.1673 11.6888Z" fill="#FFFF00"/>
<path fill-rule="evenodd" clip-rule="evenodd" d="M24.1673 39.3881C23.3462 38.7034 22.8306 37.7208 22.7338 36.6562C22.6371 35.5915 22.967 34.532 23.6511 33.7106L32.6136 22.9578C33.3067 22.1655 34.2822 21.6757 35.3316 21.593C36.381 21.5103 37.4212 21.8412 38.2299 22.5151C39.0386 23.189 39.5516 24.1524 39.6595 25.1996C39.7674 26.2467 39.4615 27.2945 38.8072 28.1191L29.8474 38.8719C29.5084 39.2789 29.0926 39.615 28.6236 39.8612C28.1546 40.1074 27.6418 40.2588 27.1143 40.3067C26.5868 40.3546 26.055 40.2982 25.5494 40.1405C25.0437 39.9829 24.5741 39.7272 24.1673 39.3881Z" fill="#FFFF00"/>
<path fill-rule="evenodd" clip-rule="evenodd" d="M34.3663 25.5385C34.3663 26.6079 33.9415 27.6336 33.1853 28.3898C32.4291 29.146 31.4034 29.5708 30.334 29.5708L8.8284 29.5708C7.75897 29.5708 6.73334 29.146 5.97714 28.3898C5.22094 27.6336 4.79611 26.6079 4.79611 25.5385C4.79611 24.4691 5.22094 23.4434 5.97714 22.6872C6.73334 21.931 7.75897 21.5062 8.8284 21.5062L30.334 21.5062C31.4034 21.5062 32.4291 21.931 33.1853 22.6872C33.9415 23.4434 34.3663 24.4691 34.3663 25.5385Z" fill="#FFFF00"/>
</g>
<path fill-rule="evenodd" clip-rule="evenodd" d="M31.2668 15.0975C31.5406 14.8695 31.8938 14.7595 32.2487 14.7918C32.6036 14.824 32.9311 14.9959 33.1593 15.2696L42.1191 26.0224C42.3372 26.2972 42.4391 26.6465 42.4032 26.9955C42.3672 27.3446 42.1962 27.6657 41.9266 27.8904C41.6571 28.115 41.3103 28.2253 40.9605 28.1977C40.6107 28.1702 40.2856 28.0069 40.0545 27.7428L31.0948 16.99C30.8667 16.7162 30.7567 16.363 30.789 16.0081C30.8213 15.6533 30.9931 15.3257 31.2668 15.0975Z" fill="#FFFF00"/>
<path fill-rule="evenodd" clip-rule="evenodd" d="M31.2668 38.6677C30.9931 38.4395 30.8213 38.112 30.789 37.7571C30.7567 37.4022 30.8667 37.049 31.0948 36.7752L40.0545 26.0224C40.2856 25.7583 40.6107 25.5951 40.9605 25.5675C41.3103 25.5399 41.6571 25.6502 41.9266 25.8749C42.1962 26.0995 42.3672 26.4206 42.4032 26.7697C42.4391 27.1187 42.3372 27.468 42.1191 27.7429L33.1593 38.4957C32.9311 38.7694 32.6036 38.9412 32.2487 38.9735C31.8938 39.0057 31.5406 38.8958 31.2668 38.6677Z" fill="#FFFF00"/>
<path fill-rule="evenodd" clip-rule="evenodd" d="M41.0868 26.8825C41.0868 27.2389 40.9452 27.5808 40.6931 27.8329C40.4411 28.085 40.0992 28.2266 39.7427 28.2266L14.2048 28.2266C13.8483 28.2266 13.5065 28.085 13.2544 27.8329C13.0023 27.5808 12.8607 27.2389 12.8607 26.8825C12.8607 26.526 13.0023 26.1841 13.2544 25.932C13.5065 25.68 13.8483 25.5384 14.2048 25.5384L39.7427 25.5384C40.0992 25.5384 40.4411 25.68 40.6931 25.932C40.9452 26.1841 41.0868 26.526 41.0868 26.8825Z" fill="#FFFF00"/>
</svg>
