<svg width="54" height="54" viewBox="0 0 54 54" fill="none" xmlns="http://www.w3.org/2000/svg">
<g opacity="0.2">
<path fill-rule="evenodd" clip-rule="evenodd" d="M42.075 23.4034C42.4142 23.8102 42.6699 24.2799 42.8275 24.7855C42.9851 25.2912 43.0416 25.8229 42.9937 26.3504C42.9457 26.8779 42.7944 27.3907 42.5482 27.8597C42.302 28.3287 41.9658 28.7445 41.5589 29.0836L30.8061 38.0433C30.4014 38.3973 29.93 38.6669 29.4197 38.836C28.9093 39.0052 28.3702 39.0706 27.8342 39.0283C27.2982 38.9861 26.7761 38.837 26.2985 38.59C25.8209 38.343 25.3976 38.0029 25.0534 37.5899C24.7092 37.1768 24.451 36.6991 24.2942 36.1848C24.1373 35.6705 24.0849 35.1301 24.14 34.5952C24.1951 34.0604 24.3566 33.542 24.615 33.0705C24.8735 32.599 25.2236 32.1839 25.6448 31.8497L36.3976 22.8873C37.219 22.2031 38.2785 21.8732 39.3431 21.97C40.4078 22.0667 41.3904 22.5823 42.075 23.4034Z" fill="#FFFF00"/>
<path fill-rule="evenodd" clip-rule="evenodd" d="M14.3758 23.4035C15.0605 22.5825 16.0431 22.0669 17.1077 21.9701C18.1724 21.8733 19.2319 22.2032 20.0533 22.8874L30.8061 31.8498C31.5984 32.5429 32.0882 33.5184 32.1709 34.5678C32.2536 35.6173 31.9227 36.6574 31.2488 37.4661C30.5749 38.2748 29.6115 38.7879 28.5643 38.8957C27.5172 39.0036 26.4694 38.6977 25.6448 38.0434L14.892 29.0837C14.485 28.7447 14.1489 28.3288 13.9027 27.8598C13.6565 27.3909 13.5051 26.878 13.4572 26.3505C13.4093 25.823 13.4657 25.2913 13.6234 24.7856C13.781 24.28 14.0367 23.8103 14.3758 23.4035Z" fill="#FFFF00"/>
<path fill-rule="evenodd" clip-rule="evenodd" d="M28.2254 33.6025C27.156 33.6025 26.1304 33.1777 25.3742 32.4215C24.618 31.6653 24.1931 30.6397 24.1931 29.5702L24.1931 8.06464C24.1931 6.99521 24.618 5.96958 25.3742 5.21338C26.1304 4.45717 27.156 4.03234 28.2254 4.03234C29.2949 4.03234 30.3205 4.45717 31.0767 5.21338C31.8329 5.96958 32.2577 6.99521 32.2577 8.06464L32.2577 29.5702C32.2577 30.6397 31.8329 31.6653 31.0767 32.4215C30.3205 33.1777 29.2949 33.6025 28.2254 33.6025Z" fill="#FFFF00"/>
</g>
<path fill-rule="evenodd" clip-rule="evenodd" d="M38.6664 30.5028C38.8944 30.7766 39.0044 31.1298 38.9722 31.4847C38.9399 31.8395 38.768 32.1671 38.4944 32.3953L27.7416 41.3551C27.4667 41.5732 27.1174 41.6751 26.7684 41.6392C26.4193 41.6032 26.0982 41.4322 25.8735 41.1626C25.6489 40.893 25.5386 40.5463 25.5662 40.1965C25.5937 39.8467 25.757 39.5216 26.0211 39.2905L36.7739 30.3308C37.0477 30.1027 37.4009 29.9927 37.7558 30.025C38.1106 30.0572 38.4382 30.2291 38.6664 30.5028Z" fill="#FFFF00"/>
<path fill-rule="evenodd" clip-rule="evenodd" d="M15.0963 30.5028C15.3245 30.2291 15.652 30.0572 16.0069 30.025C16.3618 29.9927 16.7149 30.1027 16.9888 30.3308L27.7416 39.2905C28.0057 39.5216 28.1689 39.8467 28.1965 40.1965C28.2241 40.5463 28.1138 40.893 27.8891 41.1626C27.6645 41.4322 27.3433 41.6032 26.9943 41.6392C26.6453 41.6751 26.296 41.5732 26.0211 41.3551L15.2683 32.3953C14.9946 32.1671 14.8228 31.8395 14.7905 31.4847C14.7582 31.1298 14.8682 30.7766 15.0963 30.5028Z" fill="#FFFF00"/>
<path fill-rule="evenodd" clip-rule="evenodd" d="M26.8813 40.3228C26.5249 40.3228 26.183 40.1811 25.9309 39.9291C25.6789 39.677 25.5372 39.3351 25.5372 38.9787L25.5372 13.4408C25.5372 13.0843 25.6788 12.7424 25.9309 12.4903C26.183 12.2383 26.5249 12.0967 26.8813 12.0967C27.2378 12.0967 27.5797 12.2383 27.8318 12.4903C28.0838 12.7424 28.2254 13.0843 28.2254 13.4408L28.2254 38.9787C28.2254 39.3351 28.0838 39.677 27.8318 39.9291C27.5797 40.1811 27.2378 40.3228 26.8813 40.3228Z" fill="#FFFF00"/>
</svg>
