<svg width="251" height="31" viewBox="0 0 251 31" fill="none" xmlns="http://www.w3.org/2000/svg">
<g clip-path="url(#clip0_279_1483)">
<path d="M220.117 20.9611C219.889 18.3855 220.189 15.7862 219.732 13.2201C219.248 10.4972 218.164 8.19723 215.308 7.27534C213.365 6.64808 211.374 6.61006 209.387 7.1613C206.645 7.92162 204.935 9.76539 203.866 12.6594C202.963 7.35138 198.743 5.21773 194.533 7.71728C192.038 9.1999 190.883 11.5712 190.389 14.3273C190.27 14.9973 190.189 15.6721 190.09 16.3422C189.766 13.0918 190.798 10.1551 192.328 7.18981C187.12 7.80757 182.106 7.79806 176.969 7.19931C178.889 13.9139 178.927 20.5002 177.007 27.191C182.177 26.5447 187.219 26.6017 192.304 27.1767C192.18 26.692 192.095 26.3404 192 25.9887C191.168 22.9522 190.731 19.8681 190.869 16.7176C190.921 15.5201 190.988 14.3131 191.51 13.2011C191.748 12.6974 192.066 12.2507 192.722 12.2554C193.402 12.2554 193.663 12.7687 193.853 13.2771C194.181 14.1657 194.3 15.1066 194.343 16.057C194.504 19.545 193.829 22.9379 193.136 26.3214C192.945 27.2575 193.278 27.1672 193.92 27.0912C196.6 26.7776 199.285 26.5447 201.989 26.8773C203.134 27.0152 204.293 27.0437 205.462 27.1244C205.12 25.371 204.711 23.7078 204.479 22.0256C204.117 19.3977 203.756 16.7461 204.341 14.0992C204.526 13.2534 204.745 12.2507 205.866 12.2982C206.931 12.341 207.054 13.3674 207.23 14.1515C207.667 16.0903 207.548 18.0671 207.358 20.0202C207.13 22.3915 206.617 24.7294 206.166 27.1149C206.37 27.1292 206.512 27.1577 206.65 27.1387C211.16 26.6017 215.67 26.5875 220.179 27.1292C221.03 27.229 220.849 26.7205 220.773 26.2738C220.474 24.5156 220.274 22.7526 220.117 20.9754V20.9611Z" fill="white"/>
<path d="M249.599 11.4285C248.739 8.78164 246.762 7.24199 244.01 6.85233C241.159 6.44366 238.655 7.11844 236.821 9.52295C235.851 10.7965 235.386 12.2791 235.015 13.8045C234.934 14.6456 234.858 15.4867 234.777 16.3278C234.616 15.3917 234.468 14.4603 234.815 13.5526C234.901 11.2859 236.018 9.34713 236.921 7.24674C236.455 7.27526 236.094 7.28476 235.733 7.31802C232.972 7.55562 230.206 7.77422 227.436 7.64116C225.763 7.56038 224.09 7.40831 222.422 7.26575C221.895 7.22298 221.586 7.24199 221.795 7.93578C222.009 8.66284 222.08 9.43266 222.237 10.1787C223.23 14.926 223.22 19.716 222.845 24.525C222.688 26.5018 222.118 28.3979 221.724 30.4127C226.842 29.8187 231.85 29.852 236.949 30.3985C236.426 28.013 235.775 25.7415 235.709 23.1279C236.084 23.7029 236.307 24.0641 236.55 24.411C238.408 27.1101 241.083 27.7801 244.129 27.3572C246.814 26.9818 248.644 25.4469 249.532 22.8951C250.853 19.0935 250.844 15.2396 249.608 11.4428L249.599 11.4285ZM237.548 21.0893C237.419 21.4552 237.334 21.9114 236.835 21.9494C236.265 21.9874 236.089 21.498 235.994 21.0988C235.348 18.4805 235.338 15.8479 235.956 13.22C236.056 12.7923 236.198 12.2316 236.83 12.2696C237.438 12.3076 237.51 12.8874 237.633 13.3103C238.004 14.5411 237.933 15.8289 238.009 17.0976C237.909 18.433 238.009 19.792 237.553 21.0893H237.548Z" fill="white"/>
<path d="M165.123 7.69832C163.559 8.41587 162.476 9.65139 161.487 11.4144C161.592 8.81504 162.271 6.65763 162.737 4.35767C157.605 5.00869 152.568 4.97067 147.469 4.37192C148.144 6.95226 148.695 9.39479 148.809 11.9133C149.018 16.6939 148.828 21.4506 147.668 26.1171C147.383 27.2623 147.84 27.1673 148.638 27.0912C151.979 26.7681 155.319 26.5257 158.679 26.8679C159.99 27.0009 161.311 27.0342 162.742 27.115C161.753 25.0241 160.755 23.0805 160.594 20.8614C160.247 19.9585 160.394 19.0318 160.295 18.1195C160.394 18.11 160.499 18.1052 160.599 18.0957C160.67 18.856 160.746 19.6163 160.817 20.3814C160.941 20.9089 161.031 21.4506 161.193 21.9686C162.347 25.7369 164.947 27.7042 168.62 27.614C172.517 27.5142 174.869 25.6086 175.81 21.6122C176.523 18.5947 176.494 15.5296 175.677 12.5359C174.389 7.82663 169.575 5.65971 165.123 7.70307V7.69832ZM163.407 21.175C163.274 21.5884 163.193 22.1729 162.542 22.1349C161.991 22.1016 161.848 21.6074 161.753 21.2083C161.136 18.6232 161.159 16.0238 161.768 13.4387C161.863 13.0443 162.015 12.5216 162.556 12.5121C163.174 12.4978 163.264 13.0823 163.398 13.5053C163.797 14.7693 163.721 16.0951 163.806 17.3972C163.721 18.6659 163.801 19.9537 163.407 21.1797V21.175Z" fill="white"/>
<path d="M83.3216 4.36242C78.1704 5.00869 73.1286 4.97543 68.0439 4.37192C68.4811 6.33925 69.0561 8.14501 69.1654 10.0411C69.3983 10.4212 69.3697 10.8346 69.327 11.2766C69.0466 11.1863 68.9896 10.9582 68.9421 10.7301C68.8375 10.5828 68.7282 10.4402 68.6284 10.2882C66.8559 7.6508 64.2994 6.74317 61.2581 7.08056C58.0457 7.43696 56.0451 9.32351 55.1803 12.3648C54.2917 15.4964 54.2394 18.6849 55.0472 21.845C55.9834 25.5136 58.3214 27.3716 61.757 27.614C66.1194 27.9181 68.4811 25.257 69.4885 22.3915C69.6216 22.0161 69.7166 21.6264 69.8307 21.2463C70.0968 20.2579 69.8592 19.1887 70.3344 18.224C70.3534 18.3333 70.3629 18.4426 70.3772 18.5519C70.3772 18.5519 70.3772 18.5471 70.3772 18.5424C70.3772 18.5424 70.3772 18.5471 70.3772 18.5519C70.5102 19.6924 70.4009 20.8091 70.0255 21.9068C69.8022 23.7743 68.828 25.371 68.0629 27.1863C73.1999 26.559 78.2417 26.578 83.3549 27.1863C81.6157 19.5261 81.2497 11.9941 83.3216 4.35767V4.36242ZM69.0656 21.194C68.9278 21.6169 68.7948 22.1777 68.1722 22.1349C67.6353 22.0969 67.507 21.5932 67.4119 21.1893C66.8037 18.5994 66.8322 16.0001 67.4404 13.415C67.5307 13.0301 67.659 12.4883 68.2293 12.5073C68.7615 12.5264 68.9041 13.0206 69.0371 13.4197C69.479 14.717 69.3888 16.0761 69.4695 17.3924C69.3983 18.6849 69.4695 19.9727 69.0656 21.1988V21.194Z" fill="white"/>
<path d="M53.3602 21.7262C53.0276 18.9368 53.4173 16.1141 52.9516 13.3342C52.5096 10.7158 51.5877 8.40637 48.8791 7.34668C47.0686 6.63863 45.163 6.5721 43.2908 6.93325C39.4084 7.68407 37.4553 10.3024 36.7235 14.0137C36.6475 14.7836 36.5714 15.5486 36.4954 16.3185C36.4004 16.309 36.3101 16.3042 36.215 16.2947C36.2863 15.3728 36.1628 14.4414 36.5001 13.529C36.6189 11.2766 37.7119 9.33777 38.6433 7.18511C33.4826 7.83138 28.455 7.75535 23.3371 7.21362C25.2427 13.9567 25.2854 20.5145 23.3656 27.1815C28.5215 26.5448 33.5682 26.5875 38.6623 27.1768C38.5483 26.7111 38.4675 26.3594 38.3724 26.0173C37.5218 22.9475 37.0894 19.8302 37.2272 16.6416C37.2795 15.4821 37.3222 14.3131 37.8022 13.2249C38.0303 12.7069 38.3297 12.2602 38.9807 12.2412C39.6602 12.2222 39.9311 12.7117 40.1402 13.2202C40.5298 14.1706 40.6534 15.1732 40.6962 16.1997C40.8435 19.6496 40.1639 23.0045 39.4797 26.3499C39.3086 27.1815 39.5889 27.1863 40.202 27.1102C44.5643 26.5685 48.9266 26.6065 53.2842 27.1102C53.921 27.1863 54.1253 27.0437 53.9875 26.3642C53.6786 24.834 53.5408 23.2754 53.3555 21.7215L53.3602 21.7262Z" fill="white"/>
<path d="M20.3053 16.4372C18.4235 14.9118 16.1948 14.1847 13.9091 13.567C13.4292 13.4387 12.8209 13.5527 12.3552 12.9254C15.9762 13.2391 19.1173 14.4841 22.1253 16.4609C22.016 13.8521 21.9733 11.4523 22.1158 9.05256C22.1538 8.4253 21.9067 8.33026 21.3745 8.33501C19.7636 8.35877 18.1954 8.00712 16.613 7.76952C13.0823 7.2373 9.5563 6.70508 5.96854 7.2373C2.98903 7.67448 0.76985 9.36144 0.218618 11.6947C-0.570214 15.0306 0.788858 18.2334 3.75411 20.0202C5.42681 21.0276 7.28009 21.5218 9.16188 21.9305C9.40899 21.9067 9.66084 21.8592 9.84142 22.2679C9.27593 22.3962 8.76747 22.4152 8.259 22.1396C5.45057 21.8022 2.98428 20.7045 0.874394 18.8227C0.632042 18.8987 0.708074 19.1506 0.608282 19.3074C0.731834 21.5598 0.964682 23.817 0.62729 26.0647C0.513242 26.8108 0.812618 26.9296 1.49215 26.9629C4.65699 27.1149 7.81707 27.381 10.9819 27.5141C13.2676 27.6091 15.5676 27.7897 17.8485 27.362C20.5382 26.8583 22.3392 25.2569 22.6813 22.8619C23.0472 20.3196 22.3629 18.1146 20.2958 16.4419L20.3053 16.4372Z" fill="white"/>
<path d="M106.236 7.55573C103.969 6.08261 101.417 6.60533 99.7635 8.95757C98.4615 10.8108 97.8722 12.9302 97.5871 15.1494C97.5396 15.5296 97.6679 16.0095 97.1072 16.2899C97.0026 13.0348 97.9625 10.1503 99.5592 7.18032C94.3272 7.79333 89.3139 7.79333 84.177 7.18982C86.0778 13.8996 86.1348 20.4859 84.2055 27.1815C89.3614 26.5447 94.408 26.5875 99.5497 27.1815C98.8654 24.9956 98.5043 22.9047 98.6991 20.7378C98.9604 17.8438 100.091 17.1405 102.71 18.3C102.843 18.357 102.981 18.4045 103.109 18.4758C104.145 19.0651 105.176 19.6591 106.288 20.2911C105.96 16.3137 105.998 12.4408 106.777 8.60592C106.882 8.0832 106.64 7.81709 106.236 7.55573Z" fill="white"/>
<path d="M143.734 19.2884C142.736 19.0508 141.719 18.9842 140.697 19.0793C138.136 19.3074 136.639 20.6807 136.554 22.8476C136.454 25.466 137.556 26.8536 140.137 27.3098C140.597 27.3905 141.082 27.3668 141.553 27.3905C142.475 27.4238 143.363 27.2765 144.218 26.9438C146.01 26.2501 146.747 24.9385 146.618 22.6623C146.523 20.9753 145.44 19.697 143.729 19.2884H143.734Z" fill="white"/>
<path d="M69.8307 21.251C70.092 21.4125 69.9305 21.6976 70.0255 21.9115C70.1016 21.4268 70.1301 20.9326 70.1586 20.4431C70.1063 20.7282 70.0208 20.9991 69.8307 21.2557V21.251Z" fill="white"/>
<path d="M70.3772 18.5566C70.2869 18.818 70.2584 19.0936 70.2441 19.374C70.2774 19.0984 70.3154 18.8275 70.3772 18.5566Z" fill="white"/>
<path d="M36.4764 14.774C36.5097 14.5126 36.5714 14.256 36.714 14.0136C36.6427 13.8521 36.5667 13.6905 36.4954 13.5337C36.4716 13.9471 36.4954 14.3605 36.4764 14.774Z" fill="white"/>
<path d="M36.3671 15.6484C36.3576 15.7957 36.5904 15.6294 36.4526 15.6674C36.4289 15.6769 36.4146 15.6436 36.4194 15.5771C36.4289 15.4631 36.4384 15.3443 36.4431 15.2302C36.4241 15.368 36.4051 15.5106 36.3671 15.6484Z" fill="white"/>
<path d="M160.594 20.8614C160.67 20.6998 160.741 20.5382 160.817 20.3767C160.665 20.1201 160.608 19.8397 160.575 19.5593C160.599 19.9918 160.589 20.4242 160.594 20.8614Z" fill="white"/>
<path d="M160.523 19.0127C160.513 18.932 160.504 18.8559 160.494 18.7751C160.508 18.8559 160.513 18.932 160.523 19.0127Z" fill="white"/>
<path d="M235.015 13.7997C234.948 13.7142 234.882 13.6334 234.811 13.5479C234.839 14.2607 234.692 14.9687 234.701 15.6435C234.758 15.0447 234.682 14.389 235.01 13.7997H235.015Z" fill="white"/>
<path d="M9.16189 21.9258C8.91954 22.2394 8.54888 22.0066 8.26376 22.1349C9.00508 22.2964 9.00983 22.2917 9.16189 21.9258Z" fill="white"/>
<path d="M69.1702 10.041C69.0466 10.2549 69.2034 10.5637 68.9468 10.7301C69.5978 10.6873 69.1369 10.2834 69.1702 10.041Z" fill="white"/>
<path d="M0.874411 18.818C0.822139 18.6232 0.579787 18.4331 0.513259 18.5186C0.323179 18.7657 0.446731 19.0556 0.608299 19.3074C0.518011 19.0461 0.456235 18.8037 0.874411 18.8227V18.818Z" fill="white"/>
<path d="M121.604 29.5811C122.488 29.6761 123.348 29.4671 124.17 29.1439L124.835 28.8588C125.011 28.778 125.182 28.6972 125.358 28.6117C126.513 28.051 127.824 27.3667 128.684 26.3925C129.53 25.4374 129.635 24.0593 129.853 22.857C129.882 22.6812 129.915 22.5101 129.948 22.3343C131.806 22.206 133.873 20.31 133.612 18.3521C133.555 17.9292 133.389 17.5158 133.123 17.1831C133.137 17.1546 133.151 17.1261 133.165 17.0976C133.707 15.2158 136.221 13.258 135.019 11.2146C135.903 10.7537 136.359 9.76052 136.245 8.74834C136.107 7.46055 135.232 6.48164 134.306 5.64528C134.919 4.77567 134.691 3.57341 134.144 2.69429C133.427 1.54906 132.21 0.845762 130.927 0.50837C129.483 0.12821 127.881 0.0901943 126.403 0.242258C125.101 0.375314 123.97 0.74597 122.968 1.57282C122.221 0.655682 121.005 0.299282 119.869 0.147218C118.439 -0.0428617 116.885 -0.0523657 115.464 0.180482C114.362 0.361058 113.069 0.798242 112.532 1.87219C112.238 2.46619 112.261 3.16474 112.594 3.70171C111.582 3.82051 110.636 4.59984 110.128 5.44095C109.496 6.48639 109.819 7.44154 110.47 8.29215C109.139 8.58202 108.341 10.0314 108.911 11.3762C109.073 11.7564 109.315 12.0985 109.6 12.4026C109.752 12.5642 109.942 12.683 110.099 12.8351C110.432 13.1534 110.503 13.5431 110.627 13.9565C110.959 15.0542 111.297 16.1567 111.629 17.2544C110.978 17.6869 110.703 18.4424 110.745 19.2265C110.845 21.0845 112.361 22.4816 114.153 22.6242C114.267 23.7409 114.395 24.8861 115.089 25.8128C115.825 26.8012 116.961 27.5187 118.006 28.1413C118.178 28.241 118.349 28.3408 118.52 28.4359L119.18 28.7923C119.955 29.1819 120.772 29.5003 121.613 29.5906L121.604 29.5811ZM132.866 19.198C132.467 20.5238 131.336 21.3411 130.062 21.6738C130.305 20.3005 130.533 18.9224 130.756 17.5395C131.151 17.1499 131.759 16.9931 132.267 17.2877C132.913 17.6631 133.061 18.5375 132.866 19.198ZM111.43 14.5933C111.23 13.9423 111.13 12.9729 110.617 12.4882C110.009 11.9132 109.32 11.4237 109.291 10.4876C109.263 9.50866 110.123 8.79111 111.064 8.83388C111.335 8.84338 111.444 8.50599 111.273 8.32541C110.57 7.55559 110.066 6.762 110.641 5.74508C111.097 4.93723 112.171 4.05811 113.14 4.23394C113.435 4.28621 113.601 3.92031 113.345 3.74923C112.304 3.04594 113.06 1.72963 113.872 1.25443C114.77 0.731714 115.887 0.62717 116.904 0.593906C117.93 0.560642 118.995 0.551138 120.012 0.712706C121.062 0.879026 121.955 1.31621 122.844 1.87695C122.925 1.92447 123.02 1.87695 123.053 1.79616C124.949 0.608162 127.572 0.608162 129.711 0.898034C130.899 1.0596 132.096 1.43501 132.985 2.28087C133.759 3.01743 134.548 4.52381 133.631 5.45045C133.517 5.56925 133.498 5.7926 133.631 5.90664C134.377 6.55767 135.152 7.27047 135.48 8.23988C135.812 9.21879 135.541 10.4401 134.453 10.7727C134.211 10.8487 134.168 11.1148 134.315 11.2954C135.09 12.2458 134.534 13.4813 133.964 14.37C133.465 15.1493 132.904 15.8668 132.614 16.746C132.457 16.6509 132.281 16.5796 132.091 16.5369C131.664 16.4466 131.222 16.5179 130.87 16.7365C131.084 15.3441 131.293 13.947 131.483 12.5499C131.611 12.5357 131.735 12.5214 131.863 12.5024C132.281 12.4311 132.101 11.8039 131.687 11.8704C130.633 12.0367 129.544 11.8894 128.565 11.4617C127.691 11.0768 126.446 10.3022 126.27 9.28056C126.213 8.93842 125.629 9.01445 125.657 9.36135C125.752 10.3403 126.232 11.7754 124.65 11.495C123.766 11.3429 122.925 10.882 122.549 10.0361C122.416 9.72725 121.87 9.9506 121.998 10.2642C122.279 10.9533 122.274 12.0605 121.186 11.8609C120.729 11.7801 120.283 11.4902 119.912 11.2289C119.137 10.6872 118.539 9.96485 118.106 9.1285C117.987 8.90991 117.717 8.96693 117.593 9.1285C116.914 10.0029 116.12 10.7917 115.208 11.4332C114.248 12.108 113.335 12.3409 112.166 12.3313C112.043 12.3313 111.981 12.5167 112.104 12.5737C112.513 12.7733 112.931 12.8493 113.35 12.8256C113.35 14.2844 113.44 15.748 113.568 17.2164C113.14 16.9503 112.632 16.8695 112.143 17.0073C111.9 16.2042 111.658 15.4059 111.415 14.6028L111.43 14.5933ZM111.463 18.9129C111.525 18.0147 112.295 17.397 113.178 17.6678C113.245 17.6869 113.459 17.8294 113.649 17.9054C113.782 19.255 113.934 20.5998 114.077 21.9351C112.622 21.669 111.349 20.5048 111.458 18.9129H111.463ZM113.986 12.721C115.478 12.3409 116.904 10.92 117.821 9.80328C118.491 10.9153 119.508 11.8989 120.729 12.3456C121.846 12.7543 122.611 12.1508 122.754 11.2717C123.39 11.8371 124.265 12.1508 125.115 12.1555C125.667 12.1555 126.128 11.9132 126.351 11.4C126.432 11.2099 126.465 11.015 126.475 10.8202C126.983 11.3334 127.644 11.7373 128.204 12.0035C129.05 12.3979 129.939 12.5927 130.851 12.5832C130.647 13.947 130.442 15.3061 130.233 16.6652C129.924 16.6889 129.611 16.7792 129.33 16.8648C129.15 16.9218 128.95 16.9741 128.755 17.0406C128.466 16.4418 127.981 15.9334 127.344 15.634C126.403 15.1873 125.092 15.3299 124.217 15.8763C123.619 16.2565 123.186 16.8885 122.982 17.5823C122.811 17.5633 122.64 17.5633 122.507 17.5585C122.188 17.5443 121.846 17.5395 121.518 17.5871C121.29 16.7507 120.725 16.0237 119.903 15.6292C119.213 15.3013 118.391 15.3251 117.66 15.5152C116.714 15.7623 115.968 16.4893 115.616 17.359C115.303 17.34 114.989 17.3305 114.675 17.3209C114.585 17.3209 114.495 17.3114 114.409 17.3067C114.295 15.7765 114.176 14.2464 113.991 12.721H113.986ZM116.034 25.8508C115.07 24.8814 114.951 23.6173 114.818 22.3296C114.818 22.2915 114.818 22.2583 114.808 22.2203C114.808 22.1917 114.804 22.1585 114.799 22.13C114.652 20.7424 114.552 19.3501 114.452 17.953C114.528 17.9577 114.599 17.9625 114.675 17.972C114.927 17.991 115.184 18.0147 115.436 18.0242C115.35 18.5945 115.431 19.1932 115.726 19.7445C116.281 20.7757 117.603 21.4694 118.757 21.3839C120.069 21.2889 121.314 20.3052 121.57 18.9841C121.623 18.718 121.637 18.4567 121.618 18.1906C121.946 18.1573 122.269 18.1098 122.597 18.1193C122.678 18.1193 122.773 18.1335 122.873 18.143C122.815 18.6943 122.901 19.2598 123.162 19.7445C123.718 20.7757 125.039 21.4694 126.194 21.3839C127.506 21.2889 128.751 20.3052 129.007 18.9841C129.093 18.5232 129.074 18.0623 128.965 17.6251C129.022 17.6108 129.083 17.5966 129.136 17.5823C129.454 17.5158 129.787 17.473 130.115 17.4112C129.958 18.4282 129.796 19.4498 129.63 20.4668C129.416 21.7831 129.259 23.1231 128.984 24.4252C128.67 25.8936 127.648 26.5921 126.427 27.3239C125.353 27.9654 124.165 28.5927 122.934 28.8588C121.566 29.1582 120.302 28.6165 119.114 27.9844C118.03 27.4094 116.909 26.7252 116.034 25.846V25.8508Z" fill="white"/>
<path d="M113.587 17.2068C113.459 15.7385 113.369 14.2749 113.369 12.816C112.95 12.835 112.532 12.759 112.123 12.5641C112.005 12.5071 112.066 12.3218 112.185 12.3218C113.354 12.3313 114.267 12.0984 115.227 11.4237C116.134 10.7821 116.932 9.99331 117.612 9.11894C117.736 8.95737 118.011 8.90035 118.125 9.11894C118.558 9.95054 119.156 10.6776 119.931 11.2193C120.302 11.4807 120.748 11.7706 121.205 11.8513C122.298 12.0509 122.298 10.939 122.017 10.2547C121.889 9.94104 122.435 9.71769 122.568 10.0266C122.939 10.8724 123.78 11.3334 124.669 11.4854C126.251 11.7658 125.771 10.3307 125.676 9.35179C125.643 9.00489 126.227 8.92886 126.289 9.27101C126.465 10.2927 127.705 11.0673 128.584 11.4522C129.563 11.8846 130.652 12.0272 131.706 11.8608C132.12 11.7943 132.296 12.4216 131.882 12.4929C131.754 12.5119 131.63 12.5261 131.502 12.5404C131.312 13.9327 131.103 15.3298 130.889 16.7269C131.241 16.5131 131.683 16.437 132.11 16.5273C132.3 16.5701 132.476 16.6414 132.633 16.7364C132.923 15.8525 133.484 15.135 133.983 14.3604C134.553 13.4718 135.109 12.2363 134.334 11.2859C134.187 11.1053 134.235 10.8392 134.472 10.7631C135.56 10.4305 135.831 9.20923 135.499 8.23032C135.171 7.26091 134.401 6.55286 133.65 5.89709C133.517 5.78304 133.536 5.56445 133.65 5.44089C134.567 4.51425 133.778 3.00787 133.004 2.27131C132.115 1.42545 130.922 1.04529 129.73 0.888478C127.591 0.598606 124.968 0.598606 123.072 1.78661C123.039 1.86264 122.939 1.91016 122.863 1.86739C121.974 1.30665 121.081 0.86947 120.031 0.70315C119.014 0.546334 117.949 0.555838 116.923 0.58435C115.906 0.617614 114.785 0.722158 113.891 1.24488C113.079 1.72008 112.318 3.04113 113.364 3.73968C113.62 3.91075 113.454 4.27665 113.159 4.22438C112.185 4.04856 111.111 4.92768 110.66 5.73552C110.085 6.75245 110.589 7.55078 111.292 8.31585C111.463 8.49643 111.354 8.83857 111.083 8.82432C110.142 8.78155 109.282 9.4991 109.31 10.478C109.339 11.4142 110.028 11.9036 110.636 12.4786C111.149 12.9633 111.249 13.9375 111.449 14.5837C111.691 15.3868 111.933 16.1852 112.176 16.9883C112.665 16.8504 113.174 16.9312 113.601 17.1973L113.587 17.2068Z" fill="white"/>
<path d="M116.058 14.0089C116.567 14.256 117.113 14.142 117.669 14.123C118.244 14.1039 118.843 14.1942 119.408 14.0612C119.774 13.9756 119.798 13.4862 119.508 13.3009C118.985 12.9682 118.277 12.9207 117.669 12.9159C117.085 12.9112 116.41 12.9207 115.973 13.3484C115.787 13.529 115.811 13.8949 116.058 14.0137V14.0089Z" fill="white"/>
<path d="M125.016 14.0089C125.524 14.256 126.071 14.142 126.627 14.123C127.202 14.1039 127.8 14.1942 128.366 14.0612C128.732 13.9756 128.755 13.4862 128.466 13.3009C127.943 12.9682 127.235 12.9207 126.627 12.9159C126.042 12.9112 125.367 12.9207 124.93 13.3484C124.745 13.529 124.769 13.8949 125.016 14.0137V14.0089Z" fill="white"/>
<path d="M122.003 21.5028C122.236 21.4981 122.445 21.4553 122.644 21.3365C122.93 21.1654 122.787 20.7757 122.488 20.7472C122.312 20.733 122.15 20.752 121.974 20.7662C121.78 20.7805 121.585 20.7805 121.437 20.9231C121.357 21.0038 121.319 21.1702 121.395 21.27C121.547 21.4695 121.765 21.5076 122.008 21.5028H122.003Z" fill="white"/>
<path d="M124.289 23.8598C124.322 23.7077 124.189 23.5557 124.032 23.6032C123.756 23.684 123.595 23.8693 123.348 24.0166C122.987 24.2304 122.568 24.3445 122.155 24.3302C121.309 24.3017 120.919 23.7647 120.259 23.3846C120.107 23.299 119.95 23.4416 119.983 23.5984C120.154 24.4395 121.29 24.9337 122.065 24.9765C122.792 25.0145 124.108 24.6914 124.293 23.8645L124.289 23.8598Z" fill="white"/>
</g>
<defs>
<clipPath id="clip0_279_1483">
<rect width="250.521" height="30.408" fill="white"/>
</clipPath>
</defs>
</svg>
