<svg width="24" height="26" viewBox="0 0 24 26" fill="none" xmlns="http://www.w3.org/2000/svg">
<g clip-path="url(#clip0_279_1472)">
<path d="M11.0619 25.4004C11.8209 25.482 12.5594 25.3025 13.2653 25.025L13.8366 24.7802C13.9875 24.7108 14.1344 24.6414 14.2854 24.568C15.277 24.0865 16.4031 23.4989 17.1417 22.6625C17.868 21.8423 17.9578 20.659 18.1455 19.6266C18.17 19.4757 18.1985 19.3288 18.2271 19.1778C19.8225 19.0676 21.5975 17.4395 21.3731 15.7584C21.3241 15.3953 21.1813 15.0403 20.9528 14.7546C20.965 14.7302 20.9773 14.7057 20.9895 14.6812C21.4547 13.0654 23.6132 11.3842 22.5809 9.62966C23.3398 9.23386 23.7315 8.38105 23.6336 7.51193C23.5153 6.40614 22.7645 5.56558 21.9688 4.84743C22.4952 4.10071 22.2993 3.06837 21.8301 2.3135C21.2139 1.33012 20.1694 0.726223 19.0676 0.436514C17.8272 0.110082 16.4521 0.0774393 15.1831 0.208012C14.0651 0.322263 13.0939 0.640534 12.233 1.35052C11.5924 0.563007 10.5478 0.256977 9.57256 0.126404C8.34436 -0.0368119 7.01007 -0.0449727 5.79003 0.154967C4.84337 0.310022 3.73351 0.685419 3.27242 1.60759C3.01944 2.11764 3.03984 2.71746 3.32546 3.17854C2.45634 3.28055 1.64434 3.94974 1.20774 4.67197C0.665044 5.56966 0.942512 6.38982 1.50153 7.12021C0.359015 7.36911 -0.326493 8.61364 0.163155 9.76839C0.301889 10.0948 0.509989 10.3886 0.754813 10.6498C0.885386 10.7885 1.0486 10.8905 1.18326 11.0211C1.46888 11.2945 1.53009 11.6291 1.63618 11.984C1.92181 12.9266 2.21152 13.8733 2.49714 14.8158C1.93813 15.1872 1.70147 15.8359 1.73819 16.5092C1.82388 18.1046 3.12553 19.3043 4.66384 19.4267C4.76177 20.3856 4.87194 21.369 5.46767 22.1646C6.10014 23.0134 7.07535 23.6295 7.97304 24.164C8.11994 24.2497 8.26683 24.3354 8.41372 24.417L8.9809 24.7231C9.646 25.0576 10.3478 25.331 11.0701 25.4086L11.0619 25.4004ZM20.7284 16.4847C20.3856 17.6232 19.4145 18.325 18.3209 18.6106C18.529 17.4314 18.7249 16.2481 18.9167 15.0607C19.2553 14.7261 19.7776 14.5914 20.2142 14.8444C20.7692 15.1668 20.8957 15.9176 20.7284 16.4847ZM2.32577 12.5308C2.15439 11.9718 2.0687 11.1394 1.62802 10.7232C1.10573 10.2295 0.51407 9.80919 0.489587 9.00535C0.465105 8.16479 1.20366 7.54865 2.01158 7.58538C2.24416 7.59354 2.33801 7.30383 2.19111 7.14877C1.58721 6.48775 1.15469 5.80632 1.64842 4.93312C2.04014 4.23945 2.96231 3.48457 3.79471 3.63555C4.0477 3.68043 4.19051 3.36624 3.97017 3.21935C3.07656 2.61545 3.72534 1.48518 4.42309 1.07714C5.19429 0.628293 6.15318 0.538524 7.02639 0.509962C7.90775 0.481399 8.82176 0.473238 9.69497 0.611972C10.5967 0.754786 11.3639 1.13018 12.1269 1.61167C12.1963 1.65247 12.2779 1.61167 12.3064 1.5423C13.9345 0.522203 16.1869 0.522203 18.0231 0.771107C19.0432 0.909841 20.0714 1.23219 20.8345 1.9585C21.4996 2.59097 22.1769 3.88445 21.3894 4.68013C21.2915 4.78214 21.2751 4.97392 21.3894 5.07185C22.03 5.63086 22.6951 6.24292 22.9767 7.07533C23.2623 7.91589 23.0297 8.96455 22.0953 9.25018C21.8872 9.31546 21.8505 9.54397 21.977 9.69902C22.6421 10.5151 22.1647 11.576 21.675 12.339C21.2466 13.0082 20.7651 13.6244 20.5162 14.3792C20.3815 14.2976 20.2306 14.2364 20.0673 14.1997C19.7001 14.1222 19.3206 14.1834 19.0187 14.3711C19.2023 13.1755 19.3818 11.9759 19.5451 10.7762C19.6552 10.764 19.7613 10.7518 19.8715 10.7354C20.2306 10.6742 20.0755 10.1356 19.7205 10.1928C18.8147 10.3356 17.8803 10.2091 17.0397 9.84184C16.2889 9.51132 15.2198 8.84622 15.0689 7.96893C15.0199 7.67514 14.518 7.74043 14.5425 8.0383C14.6241 8.87886 15.0362 10.1111 13.6774 9.8704C12.9185 9.73983 12.1963 9.34403 11.8739 8.61772C11.7597 8.35249 11.2904 8.54427 11.4006 8.81358C11.6413 9.40523 11.6372 10.356 10.7028 10.1846C10.3111 10.1152 9.92755 9.86632 9.60928 9.6419C8.94418 9.17673 8.43005 8.55651 8.05873 7.83836C7.95672 7.65066 7.72414 7.69963 7.61805 7.83836C7.03455 8.58915 6.35312 9.2665 5.56968 9.81735C4.74544 10.3968 3.96201 10.5967 2.95823 10.5885C2.85214 10.5885 2.79909 10.7477 2.90518 10.7966C3.2561 10.968 3.61517 11.0333 3.97425 11.0129C3.97425 12.2656 4.05178 13.5224 4.16195 14.7832C3.79471 14.5547 3.35811 14.4853 2.93783 14.6037C2.72973 13.9141 2.52163 13.2286 2.31353 12.539L2.32577 12.5308ZM2.35025 16.2399C2.40329 15.4687 3.06432 14.9383 3.82327 15.1708C3.8804 15.1872 4.06402 15.3096 4.22723 15.3749C4.34148 16.5337 4.47206 17.6884 4.59447 18.835C3.34587 18.6065 2.25232 17.6068 2.34617 16.2399H2.35025ZM4.52102 10.9231C5.80227 10.5967 7.02639 9.37667 7.81391 8.41778C8.38924 9.37259 9.26245 10.2172 10.3111 10.6008C11.27 10.9517 11.9269 10.4335 12.0494 9.67862C12.5961 10.1642 13.3469 10.4335 14.0773 10.4376C14.5506 10.4376 14.9464 10.2295 15.1382 9.78879C15.2076 9.62557 15.2362 9.45828 15.2443 9.29098C15.6809 9.73167 16.2481 10.0785 16.7296 10.307C17.4559 10.6457 18.2189 10.813 19.0024 10.8048C18.8269 11.9759 18.6514 13.1429 18.4719 14.3099C18.2067 14.3303 17.9374 14.4078 17.6966 14.4813C17.5416 14.5302 17.3702 14.5751 17.2029 14.6322C16.954 14.1181 16.5378 13.6815 15.991 13.4244C15.1831 13.0409 14.0569 13.1633 13.3061 13.6325C12.792 13.959 12.4207 14.5017 12.2452 15.0974C12.0983 15.0811 11.9514 15.0811 11.8372 15.077C11.5638 15.0647 11.27 15.0607 10.9885 15.1015C10.7926 14.3833 10.307 13.759 9.60112 13.4203C9.00946 13.1388 8.30355 13.1592 7.67517 13.3224C6.86317 13.5346 6.22255 14.1589 5.9206 14.9056C5.65129 14.8893 5.38199 14.8811 5.11268 14.873C5.03515 14.873 4.95763 14.8648 4.88418 14.8607C4.78625 13.5468 4.68424 12.233 4.5251 10.9231H4.52102ZM6.27967 22.1973C5.45135 21.3649 5.34934 20.2795 5.23509 19.1737C5.23509 19.1411 5.23509 19.1125 5.22693 19.0799C5.22693 19.0554 5.22285 19.0268 5.21877 19.0023C5.09228 17.8109 5.00659 16.6153 4.9209 15.4157C4.98619 15.4197 5.04739 15.4238 5.11268 15.432C5.32894 15.4483 5.54928 15.4687 5.76554 15.4769C5.6921 15.9665 5.76146 16.4806 6.01445 16.954C6.49186 17.8394 7.62621 18.4352 8.61774 18.3617C9.74393 18.2801 10.813 17.4355 11.0333 16.3011C11.0782 16.0726 11.0905 15.8482 11.0741 15.6197C11.3557 15.5911 11.6332 15.5503 11.9147 15.5585C11.9841 15.5585 12.0657 15.5707 12.1514 15.5789C12.1024 16.0522 12.1759 16.5378 12.4003 16.954C12.8777 17.8394 14.012 18.4352 15.0036 18.3617C16.1298 18.2801 17.1988 17.4355 17.4192 16.3011C17.4926 15.9053 17.4763 15.5095 17.3824 15.1341C17.4314 15.1219 17.4845 15.1096 17.5293 15.0974C17.8027 15.0403 18.0884 15.0035 18.3699 14.9505C18.2352 15.8237 18.0965 16.701 17.9537 17.5742C17.7701 18.7045 17.6354 19.8551 17.3988 20.9732C17.1295 22.234 16.2522 22.8338 15.2035 23.4622C14.2813 24.0131 13.2612 24.5517 12.2044 24.7802C11.0293 25.0372 9.94387 24.5721 8.92377 24.0294C7.99344 23.5357 7.03047 22.9481 6.27967 22.1932V22.1973Z" fill="white"/>
<path d="M4.17425 14.7751C4.06408 13.5143 3.98655 12.2575 3.98655 11.0049C3.62748 11.0212 3.2684 10.9559 2.91749 10.7886C2.81548 10.7396 2.86852 10.5805 2.97053 10.5805C3.97431 10.5887 4.75775 10.3887 5.58199 9.8093C6.36134 9.25845 7.04685 8.5811 7.63035 7.83031C7.73644 7.69157 7.9731 7.64261 8.07103 7.83031C8.44235 8.54438 8.95648 9.16868 9.62158 9.63384C9.93985 9.85827 10.3234 10.1072 10.7151 10.1765C11.6536 10.3479 11.6536 9.3931 11.4129 8.80552C11.3027 8.53622 11.772 8.34444 11.8862 8.60966C12.2045 9.33597 12.9267 9.73177 13.6897 9.86235C15.0485 10.1031 14.6364 8.87081 14.5548 8.03025C14.5262 7.73238 15.0281 7.66709 15.0812 7.96088C15.2321 8.83817 16.2971 9.50327 17.052 9.83378C17.8926 10.2051 18.827 10.3275 19.7328 10.1847C20.0878 10.1276 20.2388 10.6662 19.8838 10.7274C19.7736 10.7437 19.6675 10.756 19.5574 10.7682C19.3941 11.9638 19.2146 13.1634 19.031 14.363C19.3329 14.1794 19.7124 14.1141 20.0796 14.1916C20.2429 14.2284 20.3938 14.2896 20.5285 14.3712C20.7774 13.6122 21.2589 12.9961 21.6873 12.331C22.177 11.568 22.6544 10.507 21.9893 9.69097C21.8628 9.53591 21.9036 9.30741 22.1076 9.24212C23.042 8.9565 23.2746 7.90783 22.989 7.06727C22.7074 6.23487 22.0464 5.62689 21.4017 5.0638C21.2874 4.96587 21.3038 4.77817 21.4017 4.67208C22.1892 3.8764 21.5119 2.58291 20.8468 1.95045C20.0837 1.22414 19.0595 0.897707 18.0354 0.763054C16.1992 0.51415 13.9468 0.51415 12.3187 1.53425C12.2902 1.59954 12.2045 1.64034 12.1392 1.60362C11.3762 1.12213 10.609 0.746732 9.70727 0.603918C8.83407 0.469265 7.92006 0.477426 7.03869 0.501908C6.16548 0.530471 5.20251 0.62024 4.43539 1.06908C3.73765 1.47712 3.08478 2.61148 3.98247 3.21129C4.20281 3.35819 4.06 3.67238 3.80701 3.62749C2.97053 3.47652 2.04836 4.23139 1.66072 4.92506C1.16699 5.79827 1.59952 6.48377 2.20342 7.14072C2.35031 7.29577 2.25646 7.58956 2.02388 7.57732C1.21596 7.5406 0.477407 8.15674 0.501889 8.9973C0.526371 9.80114 1.11803 10.2214 1.64032 10.7151C2.081 11.1313 2.16669 11.9678 2.33807 12.5228C2.54617 13.2124 2.75427 13.8979 2.96237 14.5874C3.38265 14.4691 3.81925 14.5385 4.18649 14.767L4.17425 14.7751Z" fill="white"/>
<path d="M6.30014 12.0289C6.73674 12.2411 7.20599 12.1432 7.68339 12.1268C8.17712 12.1105 8.69125 12.188 9.17682 12.0738C9.49101 12.0003 9.51141 11.5801 9.26251 11.4209C8.81366 11.1353 8.20569 11.0945 7.68339 11.0904C7.1815 11.0863 6.60209 11.0945 6.22669 11.4617C6.06756 11.6168 6.08796 11.931 6.30014 12.033V12.0289Z" fill="white"/>
<path d="M13.9876 12.0289C14.4242 12.2411 14.8935 12.1432 15.3709 12.1268C15.8646 12.1105 16.3787 12.188 16.8643 12.0738C17.1785 12.0003 17.1989 11.5801 16.95 11.4209C16.5011 11.1353 15.8932 11.0945 15.3709 11.0904C14.869 11.0863 14.2896 11.0945 13.9142 11.4617C13.755 11.6168 13.7754 11.931 13.9876 12.033V12.0289Z" fill="white"/>
<path d="M11.4047 18.4639C11.6047 18.4598 11.7842 18.4231 11.9556 18.3211C12.2004 18.1742 12.078 17.8396 11.8209 17.8151C11.6699 17.8029 11.5312 17.8192 11.3802 17.8314C11.2129 17.8437 11.0456 17.8437 10.9192 17.9661C10.8498 18.0355 10.8171 18.1783 10.8824 18.264C11.013 18.4353 11.2007 18.468 11.4088 18.4639H11.4047Z" fill="white"/>
<path d="M13.3674 20.4877C13.396 20.3571 13.2817 20.2266 13.147 20.2674C12.9104 20.3367 12.7717 20.4959 12.5595 20.6224C12.2494 20.806 11.8903 20.9039 11.5353 20.8917C10.809 20.8672 10.4744 20.4061 9.90721 20.0797C9.77664 20.0062 9.64199 20.1286 9.67055 20.2633C9.81744 20.9855 10.7927 21.4099 11.4578 21.4466C12.0821 21.4793 13.2123 21.2018 13.3715 20.4918L13.3674 20.4877Z" fill="white"/>
</g>
<defs>
<clipPath id="clip0_279_1472">
<rect width="23.6459" height="25.4209" fill="white"/>
</clipPath>
</defs>
</svg>
