<svg width="96" height="96" viewBox="0 0 96 96" fill="none" xmlns="http://www.w3.org/2000/svg">
<path d="M39.4031 44.0906C40.2187 43.5 40.6125 42.525 40.6125 41.1844C40.6406 40.5469 40.5094 39.9188 40.2281 39.3469C39.975 38.8875 39.6 38.5031 39.1406 38.2312C38.6643 37.9424 38.1353 37.7512 37.5844 37.6687C36.9844 37.5562 36.375 37.5 35.775 37.5094H29.1844V44.9812H36.3187C37.5469 44.9906 38.5875 44.6906 39.4031 44.0906ZM40.5094 50.8406C39.5906 50.1375 38.3625 49.7906 36.8344 49.7906H29.1656V58.6031H36.6844C37.3875 58.6031 38.0344 58.5375 38.6625 58.4062C39.2568 58.29 39.8233 58.0609 40.3313 57.7312C40.8094 57.4219 41.1938 57 41.4844 56.4563C41.7656 55.9125 41.9062 55.2187 41.9062 54.3844C41.9062 52.725 41.4375 51.5531 40.5094 50.8406ZM48 6C24.8063 6 6 24.8063 6 48C6 71.1937 24.8063 90 48 90C71.1937 90 90 71.1937 90 48C90 24.8063 71.1937 6 48 6ZM56.1094 32.8969H69.0844V36.0563H56.1094V32.8969ZM48 58.95C47.3932 60.102 46.5266 61.097 45.4688 61.8562C44.3625 62.625 43.1344 63.1875 41.8313 63.5156C40.4679 63.881 39.0614 64.0607 37.65 64.05H22.125V32.0719H37.2188C38.7469 32.0719 40.1344 32.2125 41.4 32.475C42.6563 32.7375 43.725 33.1875 44.625 33.7969C45.5156 34.4062 46.2187 35.2219 46.7156 36.2344C47.2031 37.2375 47.4563 38.4938 47.4563 39.9844C47.4563 41.5969 47.0906 42.9281 46.3594 44.0062C45.6187 45.0844 44.55 45.9562 43.0969 46.6406C45.075 47.2031 46.5281 48.2063 47.4844 49.6125C48.4594 51.0375 48.9375 52.7438 48.9375 54.75C48.9375 56.3812 48.6281 57.7781 48 58.95ZM74.1375 54H57.4125C57.4125 55.8187 58.0406 57.5625 58.9875 58.5C59.9438 59.4281 61.3125 59.8969 63.1031 59.8969C64.3969 59.8969 65.4937 59.5688 66.4312 58.9219C67.3594 58.275 67.9219 57.5906 68.1281 56.8781H73.7344C72.8344 59.6625 71.4656 61.65 69.6094 62.85C67.7719 64.05 65.5219 64.65 62.9062 64.65C61.0781 64.65 59.4375 64.35 57.9656 63.7781C56.55 63.225 55.275 62.3812 54.225 61.2937C53.1897 60.1769 52.3895 58.8634 51.8719 57.4312C51.3 55.8469 51.0188 54.1781 51.0375 52.5C51.0375 50.7656 51.3281 49.1531 51.8906 47.6531C52.9688 44.7375 55.2094 42.4031 58.0688 41.1937C59.5969 40.5562 61.2375 40.2375 62.8969 40.2562C64.8656 40.2562 66.5719 40.6313 68.0531 41.4C69.4791 42.1341 70.7173 43.1862 71.6719 44.475C72.6188 45.7594 73.2844 47.2219 73.7063 48.8719C74.1094 50.4937 74.25 52.2 74.1375 54ZM62.7 45.0375C61.6875 45.0375 60.8344 45.2156 60.1781 45.5625C59.5219 45.9094 58.9781 46.3406 58.5656 46.8375C58.1728 47.3172 57.8824 47.8724 57.7125 48.4688C57.5625 48.9656 57.4594 49.4719 57.4219 49.9875H67.7812C67.6312 48.3656 67.0688 47.1656 66.3188 46.3219C65.5313 45.4875 64.2656 45.0375 62.7 45.0375Z" fill="#0071E0"/>
</svg>
