<svg width="96" height="96" viewBox="0 0 96 96" fill="none" xmlns="http://www.w3.org/2000/svg">
<g clip-path="url(#clip0_280_1588)">
<path d="M48 8.28931C69.78 8.28931 87.402 25.9113 87.402 47.6583C87.402 69.4053 69.78 87.0603 48 87.0603C26.22 87.0603 8.59798 69.4383 8.59798 47.6913C8.59798 25.9443 26.22 8.28931 48 8.28931Z" fill="#E74D89"/>
<path d="M48 89.8668C24.702 89.8668 5.75999 70.9578 5.75999 47.6928C5.75999 24.3948 24.702 5.48584 48 5.48584C71.298 5.48584 90.24 24.3948 90.24 47.6598C90.24 70.9248 71.298 89.8668 48 89.8668ZM83.607 53.4348C82.386 53.0388 72.453 50.1018 61.134 51.8838C65.853 64.8198 67.767 75.3798 68.13 77.5578C76.248 72.1128 82.023 63.4668 83.607 53.4348ZM62.091 80.8908C61.563 77.7228 59.451 66.7008 54.402 53.5668C54.336 53.5998 54.237 53.6328 54.171 53.6328C33.81 60.7278 26.517 74.8188 25.857 76.1388C31.962 80.8908 39.651 83.7288 48 83.7288C52.983 83.7618 57.768 82.7388 62.091 80.8908ZM21.204 71.8158C22.029 70.4298 31.929 54.0618 50.541 48.0228C51.003 47.8578 51.498 47.7258 51.96 47.5938C51.069 45.5478 50.079 43.5018 49.023 41.4888C31.005 46.8678 13.515 46.6368 11.931 46.6038C11.931 46.9668 11.898 47.3298 11.898 47.6928C11.931 56.9658 15.429 65.4138 21.204 71.8158ZM12.69 40.3338C14.307 40.3668 29.157 40.4328 46.053 35.9448C40.08 25.3188 33.612 16.4088 32.688 15.1218C22.557 19.8738 15.033 29.1798 12.69 40.3338ZM39.552 12.6798C40.542 13.9998 47.109 22.9098 53.016 33.7668C65.853 28.9488 71.265 21.6888 71.925 20.7648C65.556 15.1218 57.174 11.6898 48 11.6898C45.096 11.6898 42.258 12.0528 39.552 12.6798ZM75.918 24.9228C75.159 25.9458 69.12 33.7008 55.788 39.1458C56.613 40.8618 57.438 42.6108 58.197 44.3598C58.461 44.9868 58.725 45.6138 58.989 46.2078C71.001 44.6898 82.914 47.1318 84.102 47.3628C84.003 38.8818 80.967 31.0608 75.918 24.9228Z" fill="#B2215A"/>
</g>
<defs>
<clipPath id="clip0_280_1588">
<rect width="96" height="96" fill="white"/>
</clipPath>
</defs>
</svg>
